# xmcd
#
# Track frame offsets: 
#        150
#        14009
#        29566
#        43095
#        57775
#        72535
#        87051
#        100933
#        113329
#        127016
#        141075
#        153386
#        165907
#        179104
#        189875
#        199164
#        212300
#        223054
#        235134
#        248414
#
# Disc length: 3470 seconds
#
# Revision: 1
# Processed by: cddbd v1.5.2PL0 Copyright (c) Steve Scherf et al.
# Submitted via: ExactAudioCopyFreeDBPlugin 1.0
#
DISCID=140d8c14
DTITLE=Alberta Hunter, Ivory Joe Hunter - ABC Of The Blues - Vol. 17 H
DTITLE=unter
DYEAR=2010
DGENRE=Blues
TTITLE0=Alberta Hunter - Down Hearted Blues
TTITLE1=Alberta Hunter - Why Did You Pick Me Up When I Was Down
TTITLE2=Alberta Hunter - Don't Pan Me
TTITLE3=Alberta Hunter - Jazzin' Baby Blues
TTITLE4=Alberta Hunter - You Can't Have It All
TTITLE5=Alberta Hunter - You Shall Reap Just What You Sow
TTITLE6=Alberta Hunter - Taint Nobody's Business
TTITLE7=Alberta Hunter - If You Want To Keep your Daddy
TTITLE8=Alberta Hunter - Chirping The Blues
TTITLE9=Alberta Hunter - Some Day Sweetheart
TTITLE10=Ivory Joe Hunter - Heaven Came Down To Earth
TTITLE11=Ivory Joe Hunter - It May Sound Silly
TTITLE12=Ivory Joe Hunter - I Need You
TTITLE13=Ivory Joe Hunter - You Mean Everything To Me
TTITLE14=Ivory Joe Hunter - Shooty Booty
TTITLE15=Ivory Joe Hunter - Yes, I Want You
TTITLE16=Ivory Joe Hunter - I Just Want To Love You
TTITLE17=Ivory Joe Hunter - I'll Never Leave You, Baby
TTITLE18=Ivory Joe Hunter - All About The Blues
TTITLE19=Ivory Joe Hunter - She's Gone
EXTD=
EXTT0=
EXTT1=
EXTT2=
EXTT3=
EXTT4=
EXTT5=
EXTT6=
EXTT7=
EXTT8=
EXTT9=
EXTT10=
EXTT11=
EXTT12=
EXTT13=
EXTT14=
EXTT15=
EXTT16=
EXTT17=
EXTT18=
EXTT19=
PLAYORDER=
